<svg width="36" height="44" viewBox="0 0 36 44" fill="none" xmlns="http://www.w3.org/2000/svg">
<path d="M10.5 25C9.675 25 8.96875 24.7062 8.38125 24.1187C7.79375 23.5312 7.5 22.825 7.5 22C7.5 21.175 7.79375 20.4688 8.38125 19.8812C8.96875 19.2937 9.675 19 10.5 19C11.325 19 12.0312 19.2937 12.6188 19.8812C13.2063 20.4688 13.5 21.175 13.5 22C13.5 22.825 13.2063 23.5312 12.6188 24.1187C12.0312 24.7062 11.325 25 10.5 25ZM10.5 31C8 31 5.875 30.125 4.125 28.375C2.375 26.625 1.5 24.5 1.5 22C1.5 19.5 2.375 17.375 4.125 15.625C5.875 13.875 8 13 10.5 13C12.175 13 13.6938 13.4125 15.0563 14.2375C16.4188 15.0625 17.5 16.15 18.3 17.5H31.5L36 22L29.25 28.75L26.25 26.5L23.25 28.75L20.0625 26.5H18.3C17.5 27.85 16.4188 28.9375 15.0563 29.7625C13.6938 30.5875 12.175 31 10.5 31ZM10.5 28C11.9 28 13.1313 27.575 14.1938 26.725C15.2563 25.875 15.9625 24.8 16.3125 23.5H21L23.175 25.0375L26.25 22.75L28.9125 24.8125L31.725 22L30.225 20.5H16.3125C15.9625 19.2 15.2563 18.125 14.1938 17.275C13.1313 16.425 11.9 16 10.5 16C8.85 16 7.4375 16.5875 6.2625 17.7625C5.0875 18.9375 4.5 20.35 4.5 22C4.5 23.65 5.0875 25.0625 6.2625 26.2375C7.4375 27.4125 8.85 28 10.5 28Z" fill="#A3E635"/>
</svg>
